<svg xmlns="http://www.w3.org/2000/svg" version="1.1" xmlns:xlink="http://www.w3.org/1999/xlink" xmlns:svgjs="http://svgjs.dev/svgjs" width="1000" height="764" viewBox="0 0 1000 764"><g transform="matrix(1,0,0,1,0.2731394315880493,0.3093117408906778)"><svg viewBox="0 0 323 247" data-background-color="#ffffff" preserveAspectRatio="xMidYMid meet" height="764" width="1000" xmlns="http://www.w3.org/2000/svg" xmlns:xlink="http://www.w3.org/1999/xlink"><g id="tight-bounds" transform="matrix(1,0,0,1,-0.08822401183928719,-0.09999999999999432)"><svg viewBox="0 0 323.17643936867734 247.2" height="247.2" width="323.17643936867734"><g><svg viewBox="0 0 395.52 302.536113681424" height="247.2" width="323.17643936867734"><g transform="matrix(1,0,0,1,0,220.9517577067731)"><svg viewBox="0 0 395.52 81.58435597465095" height="81.58435597465095" width="395.52"><g id="textblocktransform"><svg viewBox="0 0 395.52 81.58435597465095" height="81.58435597465095" width="395.52" id="textblock"><g><svg viewBox="0 0 395.52 44.0027032196366" height="44.0027032196366" width="395.52"><g transform="matrix(1,0,0,1,0,0)"><svg width="395.52" viewBox="0.3500000238418579 -34.29999923706055 313.67999267578125 34.89999771118164" height="44.0027032196366" data-palette-color="#113f67"><path d="M8.15 0L0.35-34.3 5.55-34.3 10.4-11.4Q10.8-9.7 11.35-5.75L11.35-5.75 11.55-5.75Q11.9-9.05 12.35-11.4L12.35-11.4 16.35-34.3 22.8-34.3 27-11.4Q27.4-9.4 27.85-5.75L27.85-5.75 28.05-5.75Q28.5-9.45 28.95-11.4L28.95-11.4 33.85-34.3 38.35-34.3 30.55 0 24.6 0 20.25-22.8Q19.85-24.85 19.4-29.05L19.4-29.05 19.2-29.05Q18.7-24.75 18.35-22.8L18.35-22.8 14.05 0 8.15 0ZM42.05 0L42.05-34.3 63.4-34.3 63.4-29.75 47.05-29.75 47.05-19.8 61.2-19.8 61.2-15.3 47.05-15.3 47.05-4.55 63.7-4.55 63.7 0 42.05 0ZM66 0L76.95-34.3 83.2-34.3 94.15 0 88.8 0 86.55-7.35 73.25-7.35 71 0 66 0ZM74.6-11.9L85.15-11.9 80.85-25.95Q80.45-27.25 80-30L80-30 79.8-30Q79.35-27.15 78.95-25.95L78.95-25.95 74.6-11.9ZM101.09 0L101.09-29.75 91.99-29.75 91.99-34.3 115.19-34.3 115.19-29.75 106.14-29.75 106.14 0 101.09 0ZM119.49 0L119.49-34.3 124.49-34.3 124.49-19.8 137.39-19.8 137.39-34.3 142.39-34.3 142.39 0 137.39 0 137.39-15.3 124.49-15.3 124.49 0 119.49 0ZM149.09 0L149.09-34.3 170.44-34.3 170.44-29.75 154.09-29.75 154.09-19.8 168.24-19.8 168.24-15.3 154.09-15.3 154.09-4.55 170.74-4.55 170.74 0 149.09 0ZM176.44 0L176.44-34.3 190.39-34.3Q195.39-34.3 198.06-31.68 200.74-29.05 200.74-24.7L200.74-24.7Q200.74-21.55 199.14-19.2 197.54-16.85 194.74-15.85L194.74-15.85 201.54 0 195.99 0 189.84-14.9 181.44-14.9 181.44 0 176.44 0ZM181.44-19.4L190.03-19.4Q192.54-19.4 193.96-20.85 195.39-22.3 195.39-24.7L195.39-24.7Q195.39-27.05 194.04-28.4 192.69-29.75 190.09-29.75L190.09-29.75 181.44-29.75 181.44-19.4ZM206.03 0L206.03-34.3 210.43-34.3 222.48-13.6Q223.13-12.5 224.38-9.45L224.38-9.45 224.53-9.5 224.43-13.5 224.43-34.3 228.93-34.3 228.93 0 224.63 0 212.48-20.9Q211.83-22.1 210.53-25.1L210.53-25.1 210.33-25Q210.53-22.15 210.53-21L210.53-21 210.53 0 206.03 0ZM232.23 0L243.18-34.3 249.43-34.3 260.38 0 255.03 0 252.78-7.35 239.48-7.35 237.23 0 232.23 0ZM240.83-11.9L251.38-11.9 247.08-25.95Q246.68-27.25 246.23-30L246.23-30 246.03-30Q245.58-27.15 245.18-25.95L245.18-25.95 240.83-11.9ZM275.13 0.6Q269.68 0.6 266.68-2.38 263.68-5.35 263.68-11L263.68-11 263.68-34.3 268.73-34.3 268.73-10.9Q268.73-7.5 270.4-5.7 272.08-3.9 275.13-3.9L275.13-3.9Q278.18-3.9 279.88-5.73 281.58-7.55 281.58-10.9L281.58-10.9 281.58-34.3 286.58-34.3 286.58-11Q286.58-5.35 283.58-2.38 280.58 0.6 275.13 0.6L275.13 0.6ZM299.93 0L299.93-29.75 290.82-29.75 290.82-34.3 314.03-34.3 314.03-29.75 304.98-29.75 304.98 0 299.93 0Z" opacity="1" transform="matrix(1,0,0,1,0,0)" fill="#113f67" class="undefined-text-0" data-fill-palette-color="primary" id="text-0"></path></svg></g></svg></g><g transform="matrix(1,0,0,1,0,54.39068538491553)"><svg viewBox="0 0 395.52 27.19367058973542" height="27.19367058973542" width="395.52"><g transform="matrix(1,0,0,1,0,0)"><svg width="395.52" viewBox="2.25 -37.5 727.22998046875 50" height="27.19367058973542" data-palette-color="#87c0cd"><path d="M24.05-35L31.85-4.9 40.15-35 43.4-35 33.15 0 30.1 0 22.55-29.8 14.3 0 11.2 0 2.25-35 5.4-35 13-5.05 21.25-35 24.05-35ZM46.74-12.3L46.74-11.5Q46.74-2.7 55.14-2.7L55.14-2.7Q58.69-2.7 61.64-3.65L61.64-3.65Q62.39-3.9 62.69-4.05L62.69-4.05 63.44-1.4Q61.69-0.35 57.09 0.1L57.09 0.1Q55.79 0.2 54.34 0.2L54.34 0.2Q50.14 0.2 47.34-1.9L47.34-1.9Q43.49-4.75 43.49-11.4 43.49-18.05 46.96-21.63 50.44-25.2 55.39-25.2 60.34-25.2 62.84-22L62.84-22Q64.74-19.45 64.74-15.25L64.74-15.25Q64.74-14.25 64.64-13.15L64.64-13.15 46.79-13.15Q46.74-12.75 46.74-12.3L46.74-12.3ZM55.59-22.1L55.59-22.1Q52.49-22.1 50.29-20.23 48.09-18.35 47.24-15.4L47.24-15.4 61.79-15.4Q61.54-20.95 57.49-21.85L57.49-21.85Q56.59-22.1 55.59-22.1ZM69.93-19.9L69.03-22.3Q74.48-25 78.58-25.15L78.58-25.15Q81.83-25.15 83.6-24.33 85.38-23.5 86.48-22.03 87.58-20.55 87.58-17.9L87.58-17.9 87.58 0 84.33 0 84.33-1.9Q77.48 0.2 75.53 0.2L75.53 0.2Q75.43 0.2 75.38 0.2L75.38 0.2Q70.88 0.2 69.23-2.55L69.23-2.55Q68.63-3.55 68.55-4.5 68.48-5.45 68.48-6.1L68.48-6.1Q68.48-7.9 69.88-9.33 71.28-10.75 73.23-11.25L73.23-11.25Q76.53-12.1 84.33-12.75L84.33-12.75 84.33-16.8Q84.33-22.25 78.63-22.25L78.63-22.25Q74.63-22.25 69.93-19.9L69.93-19.9ZM71.53-5.7L71.53-5.7Q71.53-2.1 76.48-2.1L76.48-2.1Q80.43-2.1 84.33-3.8L84.33-3.8 84.33-10.95Q76.53-9.85 74.68-9.25L74.68-9.25Q71.53-8.25 71.53-5.7ZM103.37-3.6L103.97-0.9Q103.07 0 100.72 0L100.72 0Q97.42 0 96.27-1.7L96.27-1.7Q94.32-3.55 94.32-6.7L94.32-6.7 94.32-22.1 91.52-22.1 91.97-25 94.32-25 94.32-29.95 97.57-30.25 97.57-25 103.37-25 103.37-22.1 97.57-22.1 97.57-5.9Q97.57-3 100.57-3L100.57-3Q101.87-3 103.37-3.6L103.37-3.6ZM112.71-37.5L112.71-22.15Q116.66-25 120.31-25.15L120.31-25.15Q123.41-25.15 125.06-24.4 126.71-23.65 127.76-22.28 128.81-20.9 128.81-18.4L128.81-18.4 128.81 0 125.56 0 125.56-17.55Q125.56-19.4 124.76-20.4L124.76-20.4Q123.16-22.25 119.86-22.25L119.86-22.25Q116.61-22.1 112.71-20.15L112.71-20.15 112.71 0 109.46 0 109.46-37.25 112.71-37.5ZM136.75-12.3L136.75-11.5Q136.75-2.7 145.15-2.7L145.15-2.7Q148.7-2.7 151.65-3.65L151.65-3.65Q152.4-3.9 152.7-4.05L152.7-4.05 153.45-1.4Q151.7-0.35 147.1 0.1L147.1 0.1Q145.8 0.2 144.35 0.2L144.35 0.2Q140.15 0.2 137.35-1.9L137.35-1.9Q133.5-4.75 133.5-11.4 133.5-18.05 136.97-21.63 140.45-25.2 145.4-25.2 150.35-25.2 152.85-22L152.85-22Q154.75-19.45 154.75-15.25L154.75-15.25Q154.75-14.25 154.65-13.15L154.65-13.15 136.8-13.15Q136.75-12.75 136.75-12.3L136.75-12.3ZM145.6-22.1L145.6-22.1Q142.5-22.1 140.3-20.23 138.1-18.35 137.25-15.4L137.25-15.4 151.8-15.4Q151.55-20.95 147.5-21.85L147.5-21.85Q146.6-22.1 145.6-22.1ZM173.83-24.5L172.53-21.5Q171.73-21.95 170.83-21.95 169.93-21.95 169.83-21.9L169.83-21.9Q167.93-21.9 166.01-20.53 164.08-19.15 162.73-17.45L162.73-17.45 162.73 0 159.48 0 159.48-25 162.73-25.25 162.73-19.65Q164.58-22 165.88-22.95L165.88-22.95Q168.28-24.75 170.48-24.85L170.48-24.85Q170.78-24.9 171.58-24.9 172.38-24.9 173.83-24.5L173.83-24.5ZM193.06-6.4L193.06-6.4Q192.16-8.8 192.16-12L192.16-12Q192.16-18.15 195.61-21.68 199.06-25.2 204.26-25.2L204.26-25.2Q212.41-25.2 214.96-18.6L214.96-18.6Q215.91-16.2 215.91-13L215.91-13Q215.91-6.85 212.46-3.33 209.01 0.2 203.81 0.2L203.81 0.2Q195.66 0.2 193.06-6.4ZM195.41-12.35Q195.41-7.75 197.79-5.23 200.16-2.7 203.91-2.7 207.66-2.7 210.16-5.38 212.66-8.05 212.66-12.65 212.66-17.25 210.31-19.78 207.96-22.3 204.19-22.3 200.41-22.3 197.91-19.63 195.41-16.95 195.41-12.35ZM234.75-24.5L233.45-21.5Q232.65-21.95 231.75-21.95 230.85-21.95 230.75-21.9L230.75-21.9Q228.85-21.9 226.93-20.53 225-19.15 223.65-17.45L223.65-17.45 223.65 0 220.4 0 220.4-25 223.65-25.25 223.65-19.65Q225.5-22 226.8-22.95L226.8-22.95Q229.2-24.75 231.4-24.85L231.4-24.85Q231.7-24.9 232.5-24.9 233.3-24.9 234.75-24.5L234.75-24.5ZM256.83-25.25L256.83-22.25Q260.58-25 263.93-25.15L263.93-25.15Q266.98-25.15 268.63-24.4 270.28-23.65 271.35-22.28 272.43-20.9 272.43-18.4L272.43-18.4 272.43 0 269.18 0 269.18-17.55Q269.18-19.4 268.38-20.4L268.38-20.4Q266.78-22.25 263.48-22.25L263.48-22.25Q260.33-22.1 256.83-20.2L256.83-20.2 256.83 0 253.58 0 253.58-25 256.83-25.25ZM278.92-6.4L278.92-6.4Q278.02-8.8 278.02-12L278.02-12Q278.02-18.15 281.47-21.68 284.92-25.2 290.12-25.2L290.12-25.2Q298.27-25.2 300.82-18.6L300.82-18.6Q301.77-16.2 301.77-13L301.77-13Q301.77-6.85 298.32-3.33 294.87 0.2 289.67 0.2L289.67 0.2Q281.52 0.2 278.92-6.4ZM281.27-12.35Q281.27-7.75 283.64-5.23 286.02-2.7 289.77-2.7 293.52-2.7 296.02-5.38 298.52-8.05 298.52-12.65 298.52-17.25 296.17-19.78 293.82-22.3 290.04-22.3 286.27-22.3 283.77-19.63 281.27-16.95 281.27-12.35ZM316.86-3.6L317.46-0.9Q316.56 0 314.21 0L314.21 0Q310.91 0 309.76-1.7L309.76-1.7Q307.81-3.55 307.81-6.7L307.81-6.7 307.81-22.1 305.01-22.1 305.46-25 307.81-25 307.81-29.95 311.06-30.25 311.06-25 316.86-25 316.86-22.1 311.06-22.1 311.06-5.9Q311.06-3 314.06-3L314.06-3Q315.36-3 316.86-3.6L316.86-3.6ZM321.7-3.25L321.7-3.25Q321.7-3.25 324.4-3.2L324.4-3.2Q324.4-0.5 323.2 4.3L323.2 4.3 323 5.15 320.7 5.05Q320.7 5 321.2 2.02 321.7-0.95 321.7-2 321.7-3.05 321.7-3.25ZM367.22 0L361.32-20.1 354.62 0 351.62 0 343.37-25 347.02-25.25 353.37-4.1 359.87-25 363.02-25.25 368.62-4.05 375.97-25 379.82-25.25 370.22 0 367.22 0ZM385.01-12.3L385.01-11.5Q385.01-2.7 393.41-2.7L393.41-2.7Q396.96-2.7 399.91-3.65L399.91-3.65Q400.66-3.9 400.96-4.05L400.96-4.05 401.71-1.4Q399.96-0.35 395.36 0.1L395.36 0.1Q394.06 0.2 392.61 0.2L392.61 0.2Q388.41 0.2 385.61-1.9L385.61-1.9Q381.76-4.75 381.76-11.4 381.76-18.05 385.24-21.63 388.71-25.2 393.66-25.2 398.61-25.2 401.11-22L401.11-22Q403.01-19.45 403.01-15.25L403.01-15.25Q403.01-14.25 402.91-13.15L402.91-13.15 385.06-13.15Q385.01-12.75 385.01-12.3L385.01-12.3ZM393.86-22.1L393.86-22.1Q390.76-22.1 388.56-20.23 386.36-18.35 385.51-15.4L385.51-15.4 400.06-15.4Q399.81-20.95 395.76-21.85L395.76-21.85Q394.86-22.1 393.86-22.1ZM410.85-28.75L408.45-28.65 408.5-31.5 408.5-33.8Q408.5-35 408.45-35.75L408.45-35.75 411.15-35.9Q411.15-32.65 410.9-29.4L410.9-29.4 410.85-28.75ZM432.29-24.5L430.99-21.5Q430.19-21.95 429.29-21.95 428.39-21.95 428.29-21.9L428.29-21.9Q426.39-21.9 424.47-20.53 422.54-19.15 421.19-17.45L421.19-17.45 421.19 0 417.94 0 417.94-25 421.19-25.25 421.19-19.65Q423.04-22 424.34-22.95L424.34-22.95Q426.74-24.75 428.94-24.85L428.94-24.85Q429.24-24.9 430.04-24.9 430.84-24.9 432.29-24.5L432.29-24.5ZM436.03-12.3L436.03-11.5Q436.03-2.7 444.43-2.7L444.43-2.7Q447.98-2.7 450.93-3.65L450.93-3.65Q451.68-3.9 451.98-4.05L451.98-4.05 452.73-1.4Q450.98-0.35 446.38 0.1L446.38 0.1Q445.08 0.2 443.63 0.2L443.63 0.2Q439.43 0.2 436.63-1.9L436.63-1.9Q432.78-4.75 432.78-11.4 432.78-18.05 436.26-21.63 439.73-25.2 444.68-25.2 449.63-25.2 452.13-22L452.13-22Q454.03-19.45 454.03-15.25L454.03-15.25Q454.03-14.25 453.93-13.15L453.93-13.15 436.08-13.15Q436.03-12.75 436.03-12.3L436.03-12.3ZM444.88-22.1L444.88-22.1Q441.78-22.1 439.58-20.23 437.38-18.35 436.53-15.4L436.53-15.4 451.08-15.4Q450.83-20.95 446.78-21.85L446.78-21.85Q445.88-22.1 444.88-22.1ZM478.41-37.5L478.41-22.15Q482.36-25 486.01-25.15L486.01-25.15Q489.11-25.15 490.76-24.4 492.41-23.65 493.46-22.28 494.51-20.9 494.51-18.4L494.51-18.4 494.51 0 491.26 0 491.26-17.55Q491.26-19.4 490.46-20.4L490.46-20.4Q488.86-22.25 485.56-22.25L485.56-22.25Q482.31-22.1 478.41-20.15L478.41-20.15 478.41 0 475.16 0 475.16-37.25 478.41-37.5ZM502.45-12.3L502.45-11.5Q502.45-2.7 510.85-2.7L510.85-2.7Q514.4-2.7 517.35-3.65L517.35-3.65Q518.1-3.9 518.4-4.05L518.4-4.05 519.15-1.4Q517.4-0.35 512.8 0.1L512.8 0.1Q511.5 0.2 510.05 0.2L510.05 0.2Q505.85 0.2 503.05-1.9L503.05-1.9Q499.2-4.75 499.2-11.4 499.2-18.05 502.67-21.63 506.15-25.2 511.1-25.2 516.05-25.2 518.55-22L518.55-22Q520.45-19.45 520.45-15.25L520.45-15.25Q520.45-14.25 520.35-13.15L520.35-13.15 502.5-13.15Q502.45-12.75 502.45-12.3L502.45-12.3ZM511.3-22.1L511.3-22.1Q508.2-22.1 506-20.23 503.8-18.35 502.95-15.4L502.95-15.4 517.5-15.4Q517.25-20.95 513.2-21.85L513.2-21.85Q512.3-22.1 511.3-22.1ZM539.54-24.5L538.24-21.5Q537.44-21.95 536.54-21.95 535.64-21.95 535.54-21.9L535.54-21.9Q533.64-21.9 531.71-20.53 529.79-19.15 528.44-17.45L528.44-17.45 528.44 0 525.19 0 525.19-25 528.44-25.25 528.44-19.65Q530.29-22 531.59-22.95L531.59-22.95Q533.99-24.75 536.19-24.85L536.19-24.85Q536.49-24.9 537.29-24.9 538.09-24.9 539.54-24.5L539.54-24.5ZM543.28-12.3L543.28-11.5Q543.28-2.7 551.68-2.7L551.68-2.7Q555.23-2.7 558.18-3.65L558.18-3.65Q558.93-3.9 559.23-4.05L559.23-4.05 559.98-1.4Q558.23-0.35 553.63 0.1L553.63 0.1Q552.33 0.2 550.88 0.2L550.88 0.2Q546.68 0.2 543.88-1.9L543.88-1.9Q540.03-4.75 540.03-11.4 540.03-18.05 543.5-21.63 546.98-25.2 551.93-25.2 556.88-25.2 559.38-22L559.38-22Q561.28-19.45 561.28-15.25L561.28-15.25Q561.28-14.25 561.18-13.15L561.18-13.15 543.33-13.15Q543.28-12.75 543.28-12.3L543.28-12.3ZM552.13-22.1L552.13-22.1Q549.03-22.1 546.83-20.23 544.63-18.35 543.78-15.4L543.78-15.4 558.33-15.4Q558.08-20.95 554.03-21.85L554.03-21.85Q553.13-22.1 552.13-22.1ZM592.75-3.6L593.35-0.9Q592.45 0 590.1 0L590.1 0Q586.8 0 585.65-1.7L585.65-1.7Q583.7-3.55 583.7-6.7L583.7-6.7 583.7-22.1 580.9-22.1 581.35-25 583.7-25 583.7-29.95 586.95-30.25 586.95-25 592.75-25 592.75-22.1 586.95-22.1 586.95-5.9Q586.95-3 589.95-3L589.95-3Q591.25-3 592.75-3.6L592.75-3.6ZM597.04-6.4L597.04-6.4Q596.14-8.8 596.14-12L596.14-12Q596.14-18.15 599.59-21.68 603.04-25.2 608.24-25.2L608.24-25.2Q616.39-25.2 618.94-18.6L618.94-18.6Q619.89-16.2 619.89-13L619.89-13Q619.89-6.85 616.44-3.33 612.99 0.2 607.79 0.2L607.79 0.2Q599.64 0.2 597.04-6.4ZM599.39-12.35Q599.39-7.75 601.77-5.23 604.14-2.7 607.89-2.7 611.64-2.7 614.14-5.38 616.64-8.05 616.64-12.65 616.64-17.25 614.29-19.78 611.94-22.3 608.17-22.3 604.39-22.3 601.89-19.63 599.39-16.95 599.39-12.35ZM644.97-37.5L644.97-22.15Q648.92-25 652.57-25.15L652.57-25.15Q655.67-25.15 657.32-24.4 658.97-23.65 660.02-22.28 661.07-20.9 661.07-18.4L661.07-18.4 661.07 0 657.82 0 657.82-17.55Q657.82-19.4 657.02-20.4L657.02-20.4Q655.42-22.25 652.12-22.25L652.12-22.25Q648.87-22.1 644.97-20.15L644.97-20.15 644.97 0 641.72 0 641.72-37.25 644.97-37.5ZM669.01-12.3L669.01-11.5Q669.01-2.7 677.41-2.7L677.41-2.7Q680.96-2.7 683.91-3.65L683.91-3.65Q684.66-3.9 684.96-4.05L684.96-4.05 685.71-1.4Q683.96-0.35 679.36 0.1L679.36 0.1Q678.06 0.2 676.61 0.2L676.61 0.2Q672.41 0.2 669.61-1.9L669.61-1.9Q665.76-4.75 665.76-11.4 665.76-18.05 669.24-21.63 672.71-25.2 677.66-25.2 682.61-25.2 685.11-22L685.11-22Q687.01-19.45 687.01-15.25L687.01-15.25Q687.01-14.25 686.91-13.15L686.91-13.15 669.06-13.15Q669.01-12.75 669.01-12.3L669.01-12.3ZM677.86-22.1L677.86-22.1Q674.76-22.1 672.56-20.23 670.36-18.35 669.51-15.4L669.51-15.4 684.06-15.4Q683.81-20.95 679.76-21.85L679.76-21.85Q678.86-22.1 677.86-22.1ZM695.5 0L692.25 0 692.25-37.25 695.5-37.5 695.5 0ZM717.74-3.5Q716.09-1.85 714.06-1.03 712.04-0.2 710.59-0.1 709.14 0 707.74 0 706.34 0 704.69-0.25L704.69-0.25 704.69 12.25 701.44 12.5 701.44-23.7Q702.54-24.05 704.81-24.75 707.09-25.45 709.66-25.45 712.24-25.45 714.11-25.03 715.99-24.6 717.59-23.4L717.59-23.4Q721.34-20.5 721.34-13.8 721.34-7.1 717.74-3.5L717.74-3.5ZM704.69-21.7L704.69-2.8Q706.19-2.45 707.89-2.45L707.89-2.45Q712.79-2.45 715.44-5.35 718.09-8.25 718.09-13.5 718.09-18.75 715.39-21L715.39-21Q713.49-22.55 710.51-22.55 707.54-22.55 704.69-21.7L704.69-21.7ZM727.58 0.4Q726.73 0.4 726.35-0.1 725.98-0.6 725.98-1.5 725.98-2.4 726.45-2.95 726.93-3.5 727.88-3.5L727.88-3.5Q729.48-3.5 729.48-1.45L729.48-1.45Q729.48-0.6 728.95-0.1 728.43 0.4 727.58 0.4Z" opacity="1" transform="matrix(1,0,0,1,0,0)" fill="#87c0cd" class="undefined-text-1" data-fill-palette-color="secondary" id="text-1"></path></svg></g></svg></g></svg></g></svg></g><g transform="matrix(1,0,0,1,97.67210331189237,0)"><svg viewBox="0 0 200.17579337621524 200.17579337621524" height="200.17579337621524" width="200.17579337621524"><g><svg></svg></g><g id="icon-0"><svg viewBox="0 0 200.17579337621524 200.17579337621524" height="200.17579337621524" width="200.17579337621524"><g><path d="M0 100.088c0-55.277 44.811-100.088 100.088-100.088 55.277 0 100.088 44.811 100.088 100.088 0 55.277-44.811 100.088-100.088 100.088-55.277 0-100.088-44.811-100.088-100.088zM100.088 196.208c53.085 0 96.12-43.034 96.12-96.12 0-53.085-43.034-96.12-96.12-96.12-53.085 0-96.12 43.034-96.12 96.12 0 53.085 43.034 96.12 96.12 96.12z" data-fill-palette-color="accent" fill="#87c0cd" stroke="transparent"></path></g><g transform="matrix(1,0,0,1,48.46927902569624,40.762967460171666)"><svg viewBox="0 0 103.23723532482276 118.64985845587191" height="118.64985845587191" width="103.23723532482276"><g><svg xmlns="http://www.w3.org/2000/svg" xmlns:xlink="http://www.w3.org/1999/xlink" version="1.1" x="0" y="0" viewBox="6.607999801635742 0 87.00999450683594 100" enable-background="new 0 0 100 100" xml:space="preserve" height="118.64985845587191" width="103.23723532482276" class="icon-s-0" data-fill-palette-color="accent" id="s-0"><path d="M50.171 6.288c11.637 8.013 30.191 11.898 38.101 13.26 0.301 2.772 0.455 5.527 0.455 8.223 0 27.634-14.728 52.93-38.612 66.642C26.229 80.697 11.5 55.402 11.5 27.771c0-2.669 0.154-5.403 0.455-8.17C20.031 18.318 38.946 14.568 50.171 6.288M50.039 0C38.216 11.699 7.588 15.281 7.588 15.281c-0.628 4.078-0.98 8.24-0.98 12.49 0 31.327 17.64 58.512 43.506 72.229 25.87-13.718 43.504-40.902 43.504-72.229 0-4.25-0.346-8.412-0.973-12.49C92.646 15.281 62.822 11.34 50.039 0L50.039 0z" fill="#87c0cd" data-fill-palette-color="accent"></path><path d="M20.738 26.015c-0.435 2.824-0.677 5.702-0.677 8.638 0 21.633 12.19 40.407 30.053 49.882 17.864-9.476 30.052-28.249 30.052-49.882 0-2.936-0.247-5.814-0.674-8.638 0 0-20.602-2.719-29.432-10.551C41.892 23.542 20.738 26.015 20.738 26.015z" fill="#87c0cd" data-fill-palette-color="accent"></path></svg></g></svg></g></svg></g></svg></g><g></g></svg></g><defs></defs></svg><rect width="323.17643936867734" height="247.2" fill="none" stroke="none" visibility="hidden"></rect></g></svg></g></svg>